<svg width="197" height="188" viewBox="0 0 197 188" fill="none" xmlns="http://www.w3.org/2000/svg">
<path d="M114.608 143.24L132.528 116.744L136.368 118.024V151.304L129.456 149H54.832V143.24L118.96 54.152H78.768L62.64 78.088L58.8 76.808V46.088L65.712 48.392H137.648V54.152L73.52 143.24H114.608Z" fill="black"/>
<g opacity="0.5" filter="url(#filter0_d_4664_23)">
<path d="M4 91C4 57.8629 30.8629 31 64 31H133C166.137 31 193 57.8629 193 91V103C193 136.137 166.137 163 133 163H64C30.8629 163 4 136.137 4 103V91Z" fill="#020202"/>
</g>
<defs>
<filter id="filter0_d_4664_23" x="0" y="31" width="197" height="140" filterUnits="userSpaceOnUse" color-interpolation-filters="sRGB">
<feFlood flood-opacity="0" result="BackgroundImageFix"/>
<feColorMatrix in="SourceAlpha" type="matrix" values="0 0 0 0 0 0 0 0 0 0 0 0 0 0 0 0 0 0 127 0" result="hardAlpha"/>
<feOffset dy="4"/>
<feGaussianBlur stdDeviation="2"/>
<feComposite in2="hardAlpha" operator="out"/>
<feColorMatrix type="matrix" values="0 0 0 0 0 0 0 0 0 0 0 0 0 0 0 0 0 0 0.25 0"/>
<feBlend mode="normal" in2="BackgroundImageFix" result="effect1_dropShadow_4664_23"/>
<feBlend mode="normal" in="SourceGraphic" in2="effect1_dropShadow_4664_23" result="shape"/>
</filter>
</defs>
</svg>
